<?xml version="1.0" encoding="UTF-8" standalone="no"?>
<!DOCTYPE svg PUBLIC "-//W3C//DTD SVG 1.1//EN"
 "http://www.w3.org/Graphics/SVG/1.1/DTD/svg11.dtd">
<!-- Generated by graphviz version 2.38.0 (20140413.2041)
 -->
<!-- Title: G Pages: 1 -->
<svg width="550pt" height="1034pt"
 viewBox="0.00 0.00 549.77 1034.00" xmlns="http://www.w3.org/2000/svg" xmlns:xlink="http://www.w3.org/1999/xlink">
<g id="graph0" class="graph" transform="scale(1 1) rotate(0) translate(4 1030)">
<title>G</title>
<polygon fill="white" stroke="none" points="-4,4 -4,-1030 545.773,-1030 545.773,4 -4,4"/>
<g id="clust1" class="cluster"><title>cluster_Global</title>
<path fill="none" stroke="gray" d="M105.886,-152C105.886,-152 521.773,-152 521.773,-152 527.773,-152 533.773,-158 533.773,-164 533.773,-164 533.773,-1006 533.773,-1006 533.773,-1012 527.773,-1018 521.773,-1018 521.773,-1018 105.886,-1018 105.886,-1018 99.8864,-1018 93.8864,-1012 93.8864,-1006 93.8864,-1006 93.8864,-164 93.8864,-164 93.8864,-158 99.8864,-152 105.886,-152"/>
<text text-anchor="middle" x="313.83" y="-1005.2" font-family="Times,serif" font-size="11.00" fill="gray">Global</text>
</g>
<g id="clust2" class="cluster"><title>cluster_\QuasaR</title>
<path fill="none" stroke="gray" d="M113.886,-160C113.886,-160 513.773,-160 513.773,-160 519.773,-160 525.773,-166 525.773,-172 525.773,-172 525.773,-978 525.773,-978 525.773,-984 519.773,-990 513.773,-990 513.773,-990 113.886,-990 113.886,-990 107.886,-990 101.886,-984 101.886,-978 101.886,-978 101.886,-172 101.886,-172 101.886,-166 107.886,-160 113.886,-160"/>
<text text-anchor="middle" x="313.83" y="-977.2" font-family="Times,serif" font-size="11.00" fill="gray">QuasaR</text>
</g>
<g id="clust3" class="cluster"><title>cluster_\QuasaR\Admin</title>
<path fill="none" stroke="gray" d="M421.273,-890C421.273,-890 467.273,-890 467.273,-890 473.273,-890 479.273,-896 479.273,-902 479.273,-902 479.273,-950 479.273,-950 479.273,-956 473.273,-962 467.273,-962 467.273,-962 421.273,-962 421.273,-962 415.273,-962 409.273,-956 409.273,-950 409.273,-950 409.273,-902 409.273,-902 409.273,-896 415.273,-890 421.273,-890"/>
<text text-anchor="middle" x="444.273" y="-949.2" font-family="Times,serif" font-size="11.00" fill="gray">Admin</text>
</g>
<g id="clust4" class="cluster"><title>cluster_\QuasaR\App</title>
<path fill="none" stroke="gray" d="M421.273,-810C421.273,-810 467.273,-810 467.273,-810 473.273,-810 479.273,-816 479.273,-822 479.273,-822 479.273,-870 479.273,-870 479.273,-876 473.273,-882 467.273,-882 467.273,-882 421.273,-882 421.273,-882 415.273,-882 409.273,-876 409.273,-870 409.273,-870 409.273,-822 409.273,-822 409.273,-816 415.273,-810 421.273,-810"/>
<text text-anchor="middle" x="444.273" y="-869.2" font-family="Times,serif" font-size="11.00" fill="gray">App</text>
</g>
<g id="clust5" class="cluster"><title>cluster_\QuasaR\Calendar</title>
<path fill="none" stroke="gray" d="M412.773,-676C412.773,-676 475.773,-676 475.773,-676 481.773,-676 487.773,-682 487.773,-688 487.773,-688 487.773,-790 487.773,-790 487.773,-796 481.773,-802 475.773,-802 475.773,-802 412.773,-802 412.773,-802 406.773,-802 400.773,-796 400.773,-790 400.773,-790 400.773,-688 400.773,-688 400.773,-682 406.773,-676 412.773,-676"/>
<text text-anchor="middle" x="444.273" y="-789.2" font-family="Times,serif" font-size="11.00" fill="gray">Calendar</text>
</g>
<g id="clust6" class="cluster"><title>cluster_\QuasaR\Cookie</title>
<path fill="none" stroke="gray" d="M419.773,-596C419.773,-596 468.773,-596 468.773,-596 474.773,-596 480.773,-602 480.773,-608 480.773,-608 480.773,-656 480.773,-656 480.773,-662 474.773,-668 468.773,-668 468.773,-668 419.773,-668 419.773,-668 413.773,-668 407.773,-662 407.773,-656 407.773,-656 407.773,-608 407.773,-608 407.773,-602 413.773,-596 419.773,-596"/>
<text text-anchor="middle" x="444.273" y="-655.2" font-family="Times,serif" font-size="11.00" fill="gray">Cookie</text>
</g>
<g id="clust7" class="cluster"><title>cluster_\QuasaR\Database</title>
<path fill="none" stroke="gray" d="M121.886,-408C121.886,-408 505.773,-408 505.773,-408 511.773,-408 517.773,-414 517.773,-420 517.773,-420 517.773,-576 517.773,-576 517.773,-582 511.773,-588 505.773,-588 505.773,-588 121.886,-588 121.886,-588 115.886,-588 109.886,-582 109.886,-576 109.886,-576 109.886,-420 109.886,-420 109.886,-414 115.886,-408 121.886,-408"/>
<text text-anchor="middle" x="313.83" y="-575.2" font-family="Times,serif" font-size="11.00" fill="gray">Database</text>
</g>
<g id="clust8" class="cluster"><title>cluster_\QuasaR\Navbar</title>
<path fill="none" stroke="gray" d="M419.773,-328C419.773,-328 468.773,-328 468.773,-328 474.773,-328 480.773,-334 480.773,-340 480.773,-340 480.773,-388 480.773,-388 480.773,-394 474.773,-400 468.773,-400 468.773,-400 419.773,-400 419.773,-400 413.773,-400 407.773,-394 407.773,-388 407.773,-388 407.773,-340 407.773,-340 407.773,-334 413.773,-328 419.773,-328"/>
<text text-anchor="middle" x="444.273" y="-387.2" font-family="Times,serif" font-size="11.00" fill="gray">Navbar</text>
</g>
<g id="clust9" class="cluster"><title>cluster_\QuasaR\Session</title>
<path fill="none" stroke="gray" d="M416.273,-248C416.273,-248 472.273,-248 472.273,-248 478.273,-248 484.273,-254 484.273,-260 484.273,-260 484.273,-308 484.273,-308 484.273,-314 478.273,-320 472.273,-320 472.273,-320 416.273,-320 416.273,-320 410.273,-320 404.273,-314 404.273,-308 404.273,-308 404.273,-260 404.273,-260 404.273,-254 410.273,-248 416.273,-248"/>
<text text-anchor="middle" x="444.273" y="-307.2" font-family="Times,serif" font-size="11.00" fill="gray">Session</text>
</g>
<g id="clust10" class="cluster"><title>cluster_\QuasaR\Users</title>
<path fill="none" stroke="gray" d="M421.273,-168C421.273,-168 467.273,-168 467.273,-168 473.273,-168 479.273,-174 479.273,-180 479.273,-180 479.273,-228 479.273,-228 479.273,-234 473.273,-240 467.273,-240 467.273,-240 421.273,-240 421.273,-240 415.273,-240 409.273,-234 409.273,-228 409.273,-228 409.273,-180 409.273,-180 409.273,-174 415.273,-168 421.273,-168"/>
<text text-anchor="middle" x="444.273" y="-227.2" font-family="Times,serif" font-size="11.00" fill="gray">Users</text>
</g>
<!-- \\QuasaR\\Admin\\Admin -->
<g id="node1" class="node"><title>\\QuasaR\\Admin\\Admin</title>
<polygon fill="none" stroke="black" points="471.273,-934 417.273,-934 417.273,-898 471.273,-898 471.273,-934"/>
<text text-anchor="middle" x="444.273" y="-913.2" font-family="Courier,monospace" font-size="11.00">Admin</text>
</g>
<!-- \\Anax\\Common\\AppInjectableInterface -->
<g id="node13" class="node"><title>\\Anax\\Common\\AppInjectableInterface</title>
<ellipse fill="none" stroke="black" cx="153.386" cy="-18" rx="153.273" ry="18"/>
<text text-anchor="middle" x="153.386" y="-14.3" font-family="Times,serif" font-size="14.00" fill="gray">\Anax\Common\AppInjectableInterface</text>
</g>
<!-- \\QuasaR\\Admin\\Admin&#45;&gt;\\Anax\\Common\\AppInjectableInterface -->
<g id="edge1" class="edge"><title>\\QuasaR\\Admin\\Admin&#45;&gt;\\Anax\\Common\\AppInjectableInterface</title>
<path fill="none" stroke="black" stroke-dasharray="1,5" d="M417.167,-910.513C403.457,-906.217 387.693,-898.751 378.773,-886 271.253,-732.302 433.309,-183.463 306.773,-45 302.535,-40.3623 297.799,-36.3466 292.693,-32.8779"/>
<polygon fill="none" stroke="black" points="294.151,-29.6716 283.772,-27.5436 290.558,-35.6795 294.151,-29.6716"/>
</g>
<!-- \\Anax\\Common\\ConfigureInterface -->
<g id="node14" class="node"><title>\\Anax\\Common\\ConfigureInterface</title>
<ellipse fill="none" stroke="black" cx="153.386" cy="-72" rx="139.175" ry="18"/>
<text text-anchor="middle" x="153.386" y="-68.3" font-family="Times,serif" font-size="14.00" fill="gray">\Anax\Common\ConfigureInterface</text>
</g>
<!-- \\QuasaR\\Admin\\Admin&#45;&gt;\\Anax\\Common\\ConfigureInterface -->
<g id="edge2" class="edge"><title>\\QuasaR\\Admin\\Admin&#45;&gt;\\Anax\\Common\\ConfigureInterface</title>
<path fill="none" stroke="black" stroke-dasharray="1,5" d="M417.196,-910.492C403.495,-906.191 387.73,-898.725 378.773,-886 277.686,-742.391 425.622,-228.294 306.773,-99 301.522,-93.2883 295.518,-88.5216 288.996,-84.5594"/>
<polygon fill="none" stroke="black" points="290.272,-81.273 279.804,-79.6418 286.97,-87.4452 290.272,-81.273"/>
</g>
<!-- \\QuasaR\\App\\App -->
<g id="node2" class="node"><title>\\QuasaR\\App\\App</title>
<polygon fill="none" stroke="black" points="471.273,-854 417.273,-854 417.273,-818 471.273,-818 471.273,-854"/>
<text text-anchor="middle" x="444.273" y="-833.2" font-family="Courier,monospace" font-size="11.00">App</text>
</g>
<!-- \\QuasaR\\Calendar\\Calendar -->
<g id="node3" class="node"><title>\\QuasaR\\Calendar\\Calendar</title>
<polygon fill="none" stroke="black" points="479.773,-774 408.773,-774 408.773,-738 479.773,-738 479.773,-774"/>
<text text-anchor="middle" x="444.273" y="-753.2" font-family="Courier,monospace" font-size="11.00">Calendar</text>
</g>
<!-- \\QuasaR\\Calendar\\Month -->
<g id="node4" class="node"><title>\\QuasaR\\Calendar\\Month</title>
<polygon fill="none" stroke="black" points="471.273,-720 417.273,-720 417.273,-684 471.273,-684 471.273,-720"/>
<text text-anchor="middle" x="444.273" y="-699.2" font-family="Courier,monospace" font-size="11.00">Month</text>
</g>
<!-- \\QuasaR\\Cookie\\Cookie -->
<g id="node5" class="node"><title>\\QuasaR\\Cookie\\Cookie</title>
<polygon fill="none" stroke="black" points="472.773,-640 415.773,-640 415.773,-604 472.773,-604 472.773,-640"/>
<text text-anchor="middle" x="444.273" y="-619.2" font-family="Courier,monospace" font-size="11.00">Cookie</text>
</g>
<!-- \\QuasaR\\Database\\Database -->
<g id="node6" class="node"><title>\\QuasaR\\Database\\Database</title>
<polygon fill="none" stroke="black" points="188.886,-533 117.886,-533 117.886,-497 188.886,-497 188.886,-533"/>
<text text-anchor="middle" x="153.386" y="-512.2" font-family="Courier,monospace" font-size="11.00">Database</text>
</g>
<!-- \\QuasaR\\Database\\DatabaseConfigure -->
<g id="node7" class="node"><title>\\QuasaR\\Database\\DatabaseConfigure</title>
<polygon fill="none" stroke="black" points="509.773,-506 378.773,-506 378.773,-470 509.773,-470 509.773,-506"/>
<text text-anchor="middle" x="444.273" y="-485.2" font-family="Courier,monospace" font-size="11.00">DatabaseConfigure</text>
</g>
<!-- \\QuasaR\\Database\\DatabaseConfigure&#45;&gt;\\QuasaR\\Database\\Database -->
<g id="edge3" class="edge"><title>\\QuasaR\\Database\\DatabaseConfigure&#45;&gt;\\QuasaR\\Database\\Database</title>
<path fill="none" stroke="black" d="M378.441,-494.059C323.887,-499.158 247.3,-506.316 199.285,-510.804"/>
<polygon fill="none" stroke="black" points="198.828,-507.331 189.197,-511.747 199.479,-514.301 198.828,-507.331"/>
</g>
<!-- \\QuasaR\\Database\\DatabaseConfigure&#45;&gt;\\Anax\\Common\\ConfigureInterface -->
<g id="edge4" class="edge"><title>\\QuasaR\\Database\\DatabaseConfigure&#45;&gt;\\Anax\\Common\\ConfigureInterface</title>
<path fill="none" stroke="black" stroke-dasharray="1,5" d="M388.369,-469.948C384.802,-467.349 381.539,-464.383 378.773,-461 274.945,-334 423.977,-213.771 306.773,-99 300.969,-93.3164 294.41,-88.5988 287.356,-84.6981"/>
<polygon fill="none" stroke="black" points="288.694,-81.4556 278.176,-80.183 285.604,-87.7371 288.694,-81.4556"/>
</g>
<!-- \\QuasaR\\Database\\DatabaseDebug -->
<g id="node8" class="node"><title>\\QuasaR\\Database\\DatabaseDebug</title>
<polygon fill="none" stroke="black" points="496.273,-560 392.273,-560 392.273,-524 496.273,-524 496.273,-560"/>
<text text-anchor="middle" x="444.273" y="-539.2" font-family="Courier,monospace" font-size="11.00">DatabaseDebug</text>
</g>
<!-- \\QuasaR\\Database\\DatabaseDebug&#45;&gt;\\QuasaR\\Database\\Database -->
<g id="edge5" class="edge"><title>\\QuasaR\\Database\\DatabaseDebug&#45;&gt;\\QuasaR\\Database\\Database</title>
<path fill="none" stroke="black" d="M391.959,-537.204C337.199,-532.086 251.311,-524.059 199.187,-519.187"/>
<polygon fill="none" stroke="black" points="199.199,-515.673 188.916,-518.227 198.547,-522.643 199.199,-515.673"/>
</g>
<!-- \\QuasaR\\Database\\Exception -->
<g id="node9" class="node"><title>\\QuasaR\\Database\\Exception</title>
<polygon fill="none" stroke="black" points="482.773,-452 405.773,-452 405.773,-416 482.773,-416 482.773,-452"/>
<text text-anchor="middle" x="444.273" y="-431.2" font-family="Courier,monospace" font-size="11.00">Exception</text>
</g>
<!-- \\Exception -->
<g id="node15" class="node"><title>\\Exception</title>
<ellipse fill="none" stroke="black" cx="153.386" cy="-126" rx="50.0912" ry="18"/>
<text text-anchor="middle" x="153.386" y="-122.3" font-family="Times,serif" font-size="14.00" fill="gray">\Exception</text>
</g>
<!-- \\QuasaR\\Database\\Exception&#45;&gt;\\Exception -->
<g id="edge6" class="edge"><title>\\QuasaR\\Database\\Exception&#45;&gt;\\Exception</title>
<path fill="none" stroke="black" d="M405.444,-419.906C396.236,-415.557 386.751,-410.237 378.773,-404 282.925,-329.068 202.223,-205.753 169.728,-152.191"/>
<polygon fill="none" stroke="black" points="172.728,-150.389 164.578,-143.618 166.727,-153.993 172.728,-150.389"/>
</g>
<!-- \\QuasaR\\Navbar\\Navbar -->
<g id="node10" class="node"><title>\\QuasaR\\Navbar\\Navbar</title>
<polygon fill="none" stroke="black" points="472.773,-372 415.773,-372 415.773,-336 472.773,-336 472.773,-372"/>
<text text-anchor="middle" x="444.273" y="-351.2" font-family="Courier,monospace" font-size="11.00">Navbar</text>
</g>
<!-- \\QuasaR\\Navbar\\Navbar&#45;&gt;\\Anax\\Common\\AppInjectableInterface -->
<g id="edge7" class="edge"><title>\\QuasaR\\Navbar\\Navbar&#45;&gt;\\Anax\\Common\\AppInjectableInterface</title>
<path fill="none" stroke="black" stroke-dasharray="1,5" d="M415.703,-347.127C402.771,-342.574 388.173,-335.297 378.773,-324 296.862,-225.559 400.753,-131.992 306.773,-45 301.672,-40.2789 296.047,-36.2362 290.055,-32.783"/>
<polygon fill="none" stroke="black" points="291.524,-29.6027 281.031,-28.1352 288.318,-35.8257 291.524,-29.6027"/>
</g>
<!-- \\QuasaR\\Navbar\\Navbar&#45;&gt;\\Anax\\Common\\ConfigureInterface -->
<g id="edge8" class="edge"><title>\\QuasaR\\Navbar\\Navbar&#45;&gt;\\Anax\\Common\\ConfigureInterface</title>
<path fill="none" stroke="black" stroke-dasharray="1,5" d="M415.653,-346.775C402.867,-342.159 388.41,-334.931 378.773,-324 309.338,-245.242 385.831,-168.092 306.773,-99 300.229,-93.2815 292.907,-88.5769 285.107,-84.7214"/>
<polygon fill="none" stroke="black" points="286.309,-81.4261 275.749,-80.5756 283.474,-87.8262 286.309,-81.4261"/>
</g>
<!-- \\QuasaR\\Session\\Session -->
<g id="node11" class="node"><title>\\QuasaR\\Session\\Session</title>
<polygon fill="none" stroke="black" points="476.273,-292 412.273,-292 412.273,-256 476.273,-256 476.273,-292"/>
<text text-anchor="middle" x="444.273" y="-271.2" font-family="Courier,monospace" font-size="11.00">Session</text>
</g>
<!-- \\QuasaR\\Users\\Users -->
<g id="node12" class="node"><title>\\QuasaR\\Users\\Users</title>
<polygon fill="none" stroke="black" points="471.273,-212 417.273,-212 417.273,-176 471.273,-176 471.273,-212"/>
<text text-anchor="middle" x="444.273" y="-191.2" font-family="Courier,monospace" font-size="11.00">Users</text>
</g>
<!-- \\QuasaR\\Users\\Users&#45;&gt;\\Anax\\Common\\AppInjectableInterface -->
<g id="edge9" class="edge"><title>\\QuasaR\\Users\\Users&#45;&gt;\\Anax\\Common\\AppInjectableInterface</title>
<path fill="none" stroke="black" stroke-dasharray="1,5" d="M432.382,-175.794C412.087,-143.621 365.196,-77.0885 306.773,-45 298.03,-40.1981 288.618,-36.2211 278.915,-32.9308"/>
<polygon fill="none" stroke="black" points="279.718,-29.5146 269.129,-29.8642 277.625,-36.1944 279.718,-29.5146"/>
</g>
<!-- \\QuasaR\\Users\\Users&#45;&gt;\\Anax\\Common\\ConfigureInterface -->
<g id="edge10" class="edge"><title>\\QuasaR\\Users\\Users&#45;&gt;\\Anax\\Common\\ConfigureInterface</title>
<path fill="none" stroke="black" stroke-dasharray="1,5" d="M423.213,-175.769C397.98,-153.903 352.405,-117.848 306.773,-99 294.283,-93.8415 280.82,-89.6678 267.247,-86.291"/>
<polygon fill="none" stroke="black" points="267.892,-82.8474 257.357,-83.9703 266.293,-89.6623 267.892,-82.8474"/>
</g>
</g>
</svg>
